solid Visualization Toolkit generated SLA File
 facet normal -0.015136095275659364 0.99988544274821989 -4.8498325376380304e-08
  outer loop
   vertex -1.7752654552459717 66.362686157226563 27.540822982788086
   vertex 29.652389526367188 66.838432312011719 20.829681396484375
   vertex -12.36512565612793 66.202377319335938 -0.097126312553882599
  endloop
 endfacet
 facet normal -0.01513626137060623 0.99988544023354875 -8.2648385321854564e-07
  outer loop
   vertex 29.652389526367188 66.838432312011719 20.829681396484375
   vertex -1.7752654552459717 66.362686157226563 27.540822982788086
   vertex 22.653438568115234 66.732490539550781 30.890649795532227
  endloop
 endfacet
 facet normal -0.015136420201063226 0.99988543782932049 6.0404682008097526e-07
  outer loop
   vertex -12.36512565612793 66.202377319335938 -0.097126312553882599
   vertex 29.652389526367188 66.838432312011719 20.829681396484375
   vertex 33.020439147949219 66.889427185058594 6.2337379455566406
  endloop
 endfacet
 facet normal -0.015136640417498803 0.99988543449392941 1.9383596457916971e-06
  outer loop
   vertex 22.653438568115234 66.732490539550781 30.890649795532227
   vertex -1.7752654552459717 66.362686157226563 27.540822982788086
   vertex 16.64068603515625 66.641464233398438 32.440757751464844
  endloop
 endfacet
 facet normal -0.015136449391468588 0.99988543738760993 8.7217108054655371e-08
  outer loop
   vertex -12.36512565612793 66.202377319335938 -0.097126312553882599
   vertex -15.41059398651123 66.156272888183594 17.927457809448242
   vertex -1.7752654552459717 66.362686157226563 27.540822982788086
  endloop
 endfacet
 facet normal -0.015136299616376272 0.99988543965489141 -2.6061527962878473e-07
  outer loop
   vertex -12.36512565612793 66.202377319335938 -0.097126312553882599
   vertex 33.020439147949219 66.889427185058594 6.2337379455566406
   vertex 28.746744155883789 66.824729919433594 -1.1565233469009399
  endloop
 endfacet
 facet normal 0.99353425432558429 -0.047484100411954049 0.10312587303762576
  outer loop
   vertex 42.738857269287109 22.517820358276367 4.4827189445495605
   vertex 44.033527374267578 26.417354583740234 -6.1948461532592773
   vertex 43.075611114501953 28.736410140991211 4.1017055511474609
  endloop
 endfacet
 facet normal 0.88040756444749202 -0.35826239437089719 0.31069370325654633
  outer loop
   vertex 34.569831848144531 1.1448724269866943 2.9859015941619873
   vertex 40.651241302490234 2.970632791519165 -12.141593933105469
   vertex 42.738857269287109 22.517820358276367 4.4827189445495605
  endloop
 endfacet
 facet normal 0.98552403266507183 -0.15785211472808669 0.061847319387709272
  outer loop
   vertex 42.738857269287109 22.517820358276367 4.4827189445495605
   vertex 40.651241302490234 2.970632791519165 -12.141593933105469
   vertex 44.033527374267578 26.417354583740234 -6.1948461532592773
  endloop
 endfacet
 facet normal 0.9350178029393128 0.20628467554425839 0.28842389086575387
  outer loop
   vertex 38.591445922851563 43.376064300537109 1.9009389877319336
   vertex 43.927585601806641 36.313922882080078 -10.346916198730469
   vertex 40.791748046875 43.370456695556641 -5.228029727935791
  endloop
 endfacet
 facet normal 0.99556936755858283 0.04524111822443707 0.082431035422379825
  outer loop
   vertex 43.075611114501953 28.736410140991211 4.1017055511474609
   vertex 44.033527374267578 26.417354583740234 -6.1948461532592773
   vertex 43.927585601806641 36.313922882080078 -10.346916198730469
  endloop
 endfacet
 facet normal 0.86690130016744371 -0.283816010983444 0.40979337192961202
  outer loop
   vertex 43.075611114501953 28.736410140991211 4.1017055511474609
   vertex 30.608871459960938 2.6205329895019531 12.387170791625977
   vertex 34.569831848144531 1.1448724269866943 2.9859015941619873
  endloop
 endfacet
 facet normal 0.39799743030097806 -0.88511421102267052 -0.24118639870343792
  outer loop
   vertex 19.486276626586914 4.2619147300720215 -11.990549087524414
   vertex 30.608871459960938 2.6205329895019531 12.387170791625977
   vertex 22.277181625366211 1.264912486076355 3.6134083271026611
  endloop
 endfacet
 facet normal -0.15446225459159255 -0.98799078450418887 0.0039524222040751098
  outer loop
   vertex 30.608871459960938 2.6205329895019531 12.387170791625977
   vertex 19.486276626586914 4.2619147300720215 -11.990549087524414
   vertex 36.641044616699219 1.5740487575531006 -13.463739395141602
  endloop
 endfacet
 facet normal 0.29524288025792345 -0.94937499251772495 0.10732551066254045
  outer loop
   vertex 40.651241302490234 2.970632791519165 -12.141593933105469
   vertex 30.608871459960938 2.6205329895019531 12.387170791625977
   vertex 36.641044616699219 1.5740487575531006 -13.463739395141602
  endloop
 endfacet
 facet normal 0.42086848321147757 -0.79510734932756677 -0.43666236714945
  outer loop
   vertex 35.670829772949219 4.4551539421081543 -19.644992828369141
   vertex 40.651241302490234 2.970632791519165 -12.141593933105469
   vertex 36.641044616699219 1.5740487575531006 -13.463739395141602
  endloop
 endfacet
 facet normal -0.54513482492357412 -0.78936668980393154 -0.28236191613517536
  outer loop
   vertex 35.670829772949219 4.4551539421081543 -19.644992828369141
   vertex 36.641044616699219 1.5740487575531006 -13.463739395141602
   vertex 18.889410018920898 17.990467071533203 -25.085489273071289
  endloop
 endfacet
 facet normal 0.52099464286019537 -0.64967923963449481 -0.55360768392330151
  outer loop
   vertex 42.758213043212891 6.8137807846069336 -15.743063926696777
   vertex 35.670829772949219 4.4551539421081543 -19.644992828369141
   vertex 36.960224151611328 10.362585067749023 -25.364147186279297
  endloop
 endfacet
 facet normal -0.27942436137422844 -0.63568131777245984 -0.71960495308583972
  outer loop
   vertex 36.960224151611328 10.362585067749023 -25.364147186279297
   vertex 35.670829772949219 4.4551539421081543 -19.644992828369141
   vertex 18.889410018920898 17.990467071533203 -25.085489273071289
  endloop
 endfacet
 facet normal 0.75159828416009689 -0.3262623003759364 -0.57328259227103762
  outer loop
   vertex 42.758213043212891 6.8137807846069336 -15.743063926696777
   vertex 36.960224151611328 10.362585067749023 -25.364147186279297
   vertex 42.69696044921875 18.558723449707031 -22.507562637329102
  endloop
 endfacet
 facet normal 0.92523373625000105 -0.21308439920668154 0.31390694818622766
  outer loop
   vertex 42.758213043212891 6.8137807846069336 -15.743063926696777
   vertex 44.033527374267578 26.417354583740234 -6.1948461532592773
   vertex 40.651241302490234 2.970632791519165 -12.141593933105469
  endloop
 endfacet
 facet normal 0.3017075183644502 -0.43327371914868329 0.84926230203479125
  outer loop
   vertex 46.564357757568359 15.781717300415039 -12.519997596740723
   vertex 44.033527374267578 26.417354583740234 -6.1948461532592773
   vertex 42.758213043212891 6.8137807846069336 -15.743063926696777
  endloop
 endfacet
 facet normal 0.88449276401376375 -0.22937984315296869 -0.40627261532425729
  outer loop
   vertex 42.69696044921875 18.558723449707031 -22.507562637329102
   vertex 46.564357757568359 15.781717300415039 -12.519997596740723
   vertex 42.758213043212891 6.8137807846069336 -15.743063926696777
  endloop
 endfacet
 facet normal 0.50235938262084534 -0.72169399379751864 -0.47622770814956816
  outer loop
   vertex 40.651241302490234 2.970632791519165 -12.141593933105469
   vertex 35.670829772949219 4.4551539421081543 -19.644992828369141
   vertex 42.758213043212891 6.8137807846069336 -15.743063926696777
  endloop
 endfacet
 facet normal 0.89898909085824008 0.36121559533166281 -0.24767298642982347
  outer loop
   vertex 44.033527374267578 26.417354583740234 -6.1948461532592773
   vertex 46.564357757568359 15.781717300415039 -12.519997596740723
   vertex 42.69696044921875 18.558723449707031 -22.507562637329102
  endloop
 endfacet
 facet normal 0.89477995380943787 -0.16456472578401662 -0.41507503573259108
  outer loop
   vertex 35.694057464599609 31.333610534667969 -26.121442794799805
   vertex 43.927585601806641 36.313922882080078 -10.346916198730469
   vertex 44.033527374267578 26.417354583740234 -6.1948461532592773
  endloop
 endfacet
 facet normal 0.59701012950029375 0.62769925509231461 -0.49957236756109308
  outer loop
   vertex 40.791748046875 43.370456695556641 -5.228029727935791
   vertex 43.927585601806641 36.313922882080078 -10.346916198730469
   vertex 31.519903182983398 39.344821929931641 -21.366378784179688
  endloop
 endfacet
 facet normal 0.82866339571798042 0.28509766988317037 -0.48170145860722963
  outer loop
   vertex 33.020439147949219 66.889427185058594 6.2337379455566406
   vertex 38.591445922851563 43.376064300537109 1.9009389877319336
   vertex 28.746744155883789 66.824729919433594 -1.1565233469009399
  endloop
 endfacet
 facet normal 0.94742362628001142 -0.23441641872258517 0.21780132001370184
  outer loop
   vertex 33.020439147949219 66.889427185058594 6.2337379455566406
   vertex 29.652389526367188 66.838432312011719 20.829681396484375
   vertex 24.516517639160156 54.707305908203125 30.113882064819336
  endloop
 endfacet
 facet normal 0.90736481799644964 0.14208388253767967 0.3956023981035614
  outer loop
   vertex 33.020439147949219 66.889427185058594 6.2337379455566406
   vertex 24.516517639160156 54.707305908203125 30.113882064819336
   vertex 38.591445922851563 43.376064300537109 1.9009389877319336
  endloop
 endfacet
 facet normal -0.27005654337079033 0.9591640886693773 -0.084105376698897116
  outer loop
   vertex 38.591445922851563 43.376064300537109 1.9009389877319336
   vertex 40.791748046875 43.370456695556641 -5.228029727935791
   vertex 31.519903182983398 39.344821929931641 -21.366378784179688
  endloop
 endfacet
 facet normal 0.88598930789433428 0.32942162800437103 -0.32635002267483942
  outer loop
   vertex 28.746744155883789 66.824729919433594 -1.1565233469009399
   vertex 38.591445922851563 43.376064300537109 1.9009389877319336
   vertex 31.519903182983398 39.344821929931641 -21.366378784179688
  endloop
 endfacet
 facet normal 0.89266314420705783 0.32099119424051903 0.31641296464338342
  outer loop
   vertex 24.516517639160156 54.707305908203125 30.113882064819336
   vertex 43.075611114501953 28.736410140991211 4.1017055511474609
   vertex 38.591445922851563 43.376064300537109 1.9009389877319336
  endloop
 endfacet
 facet normal 0.88798213239310575 0.24435584274309557 0.38958690258773382
  outer loop
   vertex 43.075611114501953 28.736410140991211 4.1017055511474609
   vertex 24.516517639160156 54.707305908203125 30.113882064819336
   vertex 27.080898284912109 40.074813842773438 33.446670532226563
  endloop
 endfacet
 facet normal 0.92296522105689227 0.31578439124824442 0.2200350403080783
  outer loop
   vertex 38.591445922851563 43.376064300537109 1.9009389877319336
   vertex 43.075611114501953 28.736410140991211 4.1017055511474609
   vertex 43.927585601806641 36.313922882080078 -10.346916198730469
  endloop
 endfacet
 facet normal 0.89139778790110036 0.16025790634719997 0.42394266968333927
  outer loop
   vertex 29.130437850952148 24.747453689575195 34.931247711181641
   vertex 43.075611114501953 28.736410140991211 4.1017055511474609
   vertex 27.080898284912109 40.074813842773438 33.446670532226563
  endloop
 endfacet
 facet normal 0.89975174407060921 -0.21636111479460884 0.37899164508829336
  outer loop
   vertex 29.130437850952148 24.747453689575195 34.931247711181641
   vertex 28.402566909790039 12.450109481811523 29.638877868652344
   vertex 43.075611114501953 28.736410140991211 4.1017055511474609
  endloop
 endfacet
 facet normal 0.88809373887733567 -0.094889533808275153 0.44976158944547812
  outer loop
   vertex 31.139444351196289 7.2834229469299316 23.144618988037109
   vertex 43.075611114501953 28.736410140991211 4.1017055511474609
   vertex 28.402566909790039 12.450109481811523 29.638877868652344
  endloop
 endfacet
 facet normal 0.91020595520577108 -0.39449123799013719 0.12610226903969149
  outer loop
   vertex 43.075611114501953 28.736410140991211 4.1017055511474609
   vertex 31.139444351196289 7.2834229469299316 23.144618988037109
   vertex 30.608871459960938 2.6205329895019531 12.387170791625977
  endloop
 endfacet
 facet normal -0.18517180496560662 -0.92934068148112736 0.31943277914136065
  outer loop
   vertex 30.608871459960938 2.6205329895019531 12.387170791625977
   vertex 17.514694213867188 9.2107095718383789 23.969722747802734
   vertex 22.277181625366211 1.264912486076355 3.6134083271026611
  endloop
 endfacet
 facet normal -0.21911882846484365 -0.92518554345821713 0.30986876123307067
  outer loop
   vertex 22.277181625366211 1.264912486076355 3.6134083271026611
   vertex 17.514694213867188 9.2107095718383789 23.969722747802734
   vertex 17.157146453857422 2.6253154277801514 4.0546565055847168
  endloop
 endfacet
 facet normal -0.26533166562968707 -0.95453465462131426 -0.13587751963126266
  outer loop
   vertex 17.157146453857422 2.6253154277801514 4.0546565055847168
   vertex 19.486276626586914 4.2619147300720215 -11.990549087524414
   vertex 22.277181625366211 1.264912486076355 3.6134083271026611
  endloop
 endfacet
 facet normal -0.031427063723041396 -0.03796510631187152 -0.99878475677619161
  outer loop
   vertex 35.694057464599609 31.333610534667969 -26.121442794799805
   vertex 36.960224151611328 10.362585067749023 -25.364147186279297
   vertex 18.889410018920898 17.990467071533203 -25.085489273071289
  endloop
 endfacet
 facet normal 0.46751089754741582 0.83244241137600872 -0.29744443584795055
  outer loop
   vertex 31.519903182983398 39.344821929931641 -21.366378784179688
   vertex 43.927585601806641 36.313922882080078 -10.346916198730469
   vertex 35.522506713867188 36.724262237548828 -22.409276962280273
  endloop
 endfacet
 facet normal -0.052770812297293503 0.5652308090581879 -0.82324320456406441
  outer loop
   vertex 35.694057464599609 31.333610534667969 -26.121442794799805
   vertex 19.542257308959961 39.728130340576172 -19.322498321533203
   vertex 35.522506713867188 36.724262237548828 -22.409276962280273
  endloop
 endfacet
 facet normal 0.45141432960593814 -0.0049673092399854582 -0.89230063816257343
  outer loop
   vertex 35.694057464599609 31.333610534667969 -26.121442794799805
   vertex 42.69696044921875 18.558723449707031 -22.507562637329102
   vertex 36.960224151611328 10.362585067749023 -25.364147186279297
  endloop
 endfacet
 facet normal 0.87497235005864082 0.40426564504284029 -0.26644450617521692
  outer loop
   vertex 42.69696044921875 18.558723449707031 -22.507562637329102
   vertex 35.694057464599609 31.333610534667969 -26.121442794799805
   vertex 44.033527374267578 26.417354583740234 -6.1948461532592773
  endloop
 endfacet
 facet normal 0.76425626325022289 0.38209065853191609 -0.5195373833955097
  outer loop
   vertex 35.522506713867188 36.724262237548828 -22.409276962280273
   vertex 43.927585601806641 36.313922882080078 -10.346916198730469
   vertex 35.694057464599609 31.333610534667969 -26.121442794799805
  endloop
 endfacet
 facet normal -0.66967699957127502 0.39495452614405729 -0.62892260137757605
  outer loop
   vertex 25.033353805541992 45.318553924560547 -10.70807933807373
   vertex 28.746744155883789 66.824729919433594 -1.1565233469009399
   vertex 31.519903182983398 39.344821929931641 -21.366378784179688
  endloop
 endfacet
 facet normal 0.24990812426203149 -0.023807913646861266 0.96797681412088421
  outer loop
   vertex 22.653438568115234 66.732490539550781 30.890649795532227
   vertex 16.64068603515625 66.641464233398438 32.440757751464844
   vertex 24.516517639160156 54.707305908203125 30.113882064819336
  endloop
 endfacet
 facet normal 0.81714277684596148 0.089821031725917613 0.56939429616757031
  outer loop
   vertex 22.653438568115234 66.732490539550781 30.890649795532227
   vertex 24.516517639160156 54.707305908203125 30.113882064819336
   vertex 29.652389526367188 66.838432312011719 20.829681396484375
  endloop
 endfacet
 facet normal -0.21283363854325271 -0.45203044825770405 0.86623917952975282
  outer loop
   vertex 14.388162612915039 30.854108810424805 34.495735168457031
   vertex 17.514694213867188 9.2107095718383789 23.969722747802734
   vertex 29.130437850952148 24.747453689575195 34.931247711181641
  endloop
 endfacet
 facet normal -0.076160179452868182 -0.79567112122733308 0.60092187005512254
  outer loop
   vertex 28.402566909790039 12.450109481811523 29.638877868652344
   vertex 17.514694213867188 9.2107095718383789 23.969722747802734
   vertex 31.139444351196289 7.2834229469299316 23.144618988037109
  endloop
 endfacet
 facet normal -0.34719872329512602 -0.35330630902621674 0.86869309801822758
  outer loop
   vertex 17.514694213867188 9.2107095718383789 23.969722747802734
   vertex 28.402566909790039 12.450109481811523 29.638877868652344
   vertex 29.130437850952148 24.747453689575195 34.931247711181641
  endloop
 endfacet
 facet normal -0.10459204985185226 -0.9105891828642011 0.39985977937083678
  outer loop
   vertex 17.514694213867188 9.2107095718383789 23.969722747802734
   vertex 30.608871459960938 2.6205329895019531 12.387170791625977
   vertex 31.139444351196289 7.2834229469299316 23.144618988037109
  endloop
 endfacet
 facet normal -0.98083718671387443 -0.17904680922949884 0.076815709747079394
  outer loop
   vertex 17.514694213867188 9.2107095718383789 23.969722747802734
   vertex 14.388162612915039 30.854108810424805 34.495735168457031
   vertex 17.157146453857422 2.6253154277801514 4.0546565055847168
  endloop
 endfacet
 facet normal -0.6300827236626203 -0.75796488222432867 -0.16877499416843059
  outer loop
   vertex 12.342812538146973 11.285849571228027 -16.866405487060547
   vertex 19.486276626586914 4.2619147300720215 -11.990549087524414
   vertex 17.157146453857422 2.6253154277801514 4.0546565055847168
  endloop
 endfacet
 facet normal -0.16814477421387966 -0.68420222792414298 -0.70964402781127001
  outer loop
   vertex 18.889410018920898 17.990467071533203 -25.085489273071289
   vertex 36.641044616699219 1.5740487575531006 -13.463739395141602
   vertex 19.486276626586914 4.2619147300720215 -11.990549087524414
  endloop
 endfacet
 facet normal -0.18845268204180993 -0.68212196729823005 -0.70653747838344771
  outer loop
   vertex 12.342812538146973 11.285849571228027 -16.866405487060547
   vertex 18.889410018920898 17.990467071533203 -25.085489273071289
   vertex 19.486276626586914 4.2619147300720215 -11.990549087524414
  endloop
 endfacet
 facet normal -0.72012771604606396 -0.13190291444604169 -0.68118844216774521
  outer loop
   vertex 15.727156639099121 26.894424438476563 -23.46660041809082
   vertex 18.889410018920898 17.990467071533203 -25.085489273071289
   vertex 12.342812538146973 11.285849571228027 -16.866405487060547
  endloop
 endfacet
 facet normal -0.93319712930371956 0.051979417805282632 -0.35558579553171266
  outer loop
   vertex 12.342812538146973 11.285849571228027 -16.866405487060547
   vertex 13.458565711975098 37.597034454345703 -15.948420524597168
   vertex 15.727156639099121 26.894424438476563 -23.46660041809082
  endloop
 endfacet
 facet normal 0.2049249269629923 0.24506907707884323 -0.94760061300578335
  outer loop
   vertex 19.542257308959961 39.728130340576172 -19.322498321533203
   vertex 18.889410018920898 17.990467071533203 -25.085489273071289
   vertex 15.727156639099121 26.894424438476563 -23.46660041809082
  endloop
 endfacet
 facet normal -0.2596982087012763 0.25474989828807126 -0.93148232925781571
  outer loop
   vertex 19.542257308959961 39.728130340576172 -19.322498321533203
   vertex 35.694057464599609 31.333610534667969 -26.121442794799805
   vertex 18.889410018920898 17.990467071533203 -25.085489273071289
  endloop
 endfacet
 facet normal -0.54769011625969077 0.40009221124994243 -0.73482090270254141
  outer loop
   vertex 19.542257308959961 39.728130340576172 -19.322498321533203
   vertex 15.727156639099121 26.894424438476563 -23.46660041809082
   vertex 13.458565711975098 37.597034454345703 -15.948420524597168
  endloop
 endfacet
 facet normal -0.20582058240444784 0.74174101881772714 -0.63832448555725496
  outer loop
   vertex -4.2314105033874512 41.141082763671875 -6.1262574195861816
   vertex 25.033353805541992 45.318553924560547 -10.70807933807373
   vertex 13.458565711975098 37.597034454345703 -15.948420524597168
  endloop
 endfacet
 facet normal 0.14163400431696871 0.70150284891470982 0.69845082989834484
  outer loop
   vertex 31.519903182983398 39.344821929931641 -21.366378784179688
   vertex 19.542257308959961 39.728130340576172 -19.322498321533203
   vertex 13.458565711975098 37.597034454345703 -15.948420524597168
  endloop
 endfacet
 facet normal -0.25008332430174507 0.77171887472580369 -0.58472926153744653
  outer loop
   vertex 31.519903182983398 39.344821929931641 -21.366378784179688
   vertex 13.458565711975098 37.597034454345703 -15.948420524597168
   vertex 25.033353805541992 45.318553924560547 -10.70807933807373
  endloop
 endfacet
 facet normal -0.16214208558344304 0.1410174706078712 -0.97663914373017513
  outer loop
   vertex 31.519903182983398 39.344821929931641 -21.366378784179688
   vertex 35.522506713867188 36.724262237548828 -22.409276962280273
   vertex 19.542257308959961 39.728130340576172 -19.322498321533203
  endloop
 endfacet
 facet normal 0.011145369087555814 0.097877206886253246 0.99513608773878148
  outer loop
   vertex 27.080898284912109 40.074813842773438 33.446670532226563
   vertex 14.388162612915039 30.854108810424805 34.495735168457031
   vertex 29.130437850952148 24.747453689575195 34.931247711181641
  endloop
 endfacet
 facet normal -0.071634891399359316 0.20955643073549451 0.97516898262383322
  outer loop
   vertex 24.516517639160156 54.707305908203125 30.113882064819336
   vertex 14.388162612915039 30.854108810424805 34.495735168457031
   vertex 27.080898284912109 40.074813842773438 33.446670532226563
  endloop
 endfacet
 facet normal -0.037401241322399442 0.41100200870850645 -0.91086689257273834
  outer loop
   vertex -23.375396728515625 46.233734130859375 -8.3074121475219727
   vertex 28.746744155883789 66.824729919433594 -1.1565233469009399
   vertex 25.033353805541992 45.318553924560547 -10.70807933807373
  endloop
 endfacet
 facet normal -0.051720065026988053 -0.55111677371692536 -0.83282371279968448
  outer loop
   vertex 25.033353805541992 45.318553924560547 -10.70807933807373
   vertex -4.2314105033874512 41.141082763671875 -6.1262574195861816
   vertex -23.375396728515625 46.233734130859375 -8.3074121475219727
  endloop
 endfacet
 facet normal -0.96472293959835198 -0.23093791914530298 0.12640145297247227
  outer loop
   vertex 14.388162612915039 30.854108810424805 34.495735168457031
   vertex 12.342812538146973 11.285849571228027 -16.866405487060547
   vertex 17.157146453857422 2.6253154277801514 4.0546565055847168
  endloop
 endfacet
 facet normal 0.33677118608416551 -0.88427501362352545 0.32348549968210044
  outer loop
   vertex 12.342812538146973 11.285849571228027 -16.866405487060547
   vertex 14.388162612915039 30.854108810424805 34.495735168457031
   vertex -14.312042236328125 5.7840986251831055 -4.1563267707824707
  endloop
 endfacet
 facet normal -0.43824715408218307 0.049896584815940968 -0.89746853023522388
  outer loop
   vertex -14.312042236328125 5.7840986251831055 -4.1563267707824707
   vertex 13.458565711975098 37.597034454345703 -15.948420524597168
   vertex 12.342812538146973 11.285849571228027 -16.866405487060547
  endloop
 endfacet
 facet normal -0.071674887146879154 0.20957224906906954 0.97516264436893507
  outer loop
   vertex 24.516517639160156 54.707305908203125 30.113882064819336
   vertex -14.919610023498535 27.928779602050781 32.970283508300781
   vertex 14.388162612915039 30.854108810424805 34.495735168457031
  endloop
 endfacet
 facet normal -0.029636450112394384 0.39403811728419369 -0.91861615648314376
  outer loop
   vertex -12.36512565612793 66.202377319335938 -0.097126312553882599
   vertex 28.746744155883789 66.824729919433594 -1.1565233469009399
   vertex -23.375396728515625 46.233734130859375 -8.3074121475219727
  endloop
 endfacet
 facet normal -0.23757165765881547 -0.33458710982868312 0.91192717549908064
  outer loop
   vertex 16.64068603515625 66.641464233398438 32.440757751464844
   vertex -1.7752654552459717 66.362686157226563 27.540822982788086
   vertex 24.516517639160156 54.707305908203125 30.113882064819336
  endloop
 endfacet
 facet normal -0.13406687075743395 -0.084450499568932261 0.98736730110322535
  outer loop
   vertex -15.10715389251709 48.52984619140625 24.205329895019531
   vertex 24.516517639160156 54.707305908203125 30.113882064819336
   vertex -1.7752654552459717 66.362686157226563 27.540822982788086
  endloop
 endfacet
 facet normal -0.063953741994180219 0.12439118416740744 0.99017006225515225
  outer loop
   vertex 14.388162612915039 30.854108810424805 34.495735168457031
   vertex -14.919610023498535 27.928779602050781 32.970283508300781
   vertex -16.440580368041992 24.642160415649414 33.284931182861328
  endloop
 endfacet
 facet normal -0.47055932916960785 0.085229512849082256 -0.87824247669476607
  outer loop
   vertex -4.2314105033874512 41.141082763671875 -6.1262574195861816
   vertex 13.458565711975098 37.597034454345703 -15.948420524597168
   vertex -14.312042236328125 5.7840986251831055 -4.1563267707824707
  endloop
 endfacet
 facet normal -0.15428143294865598 0.32667016949635796 0.93246117335175416
  outer loop
   vertex -13.084946632385254 41.506523132324219 28.517133712768555
   vertex -14.919610023498535 27.928779602050781 32.970283508300781
   vertex 24.516517639160156 54.707305908203125 30.113882064819336
  endloop
 endfacet
 facet normal 0.21075894597884537 0.41274952146953275 -0.88612555499576795
  outer loop
   vertex -10.401599884033203 38.124668121337891 -8.998814582824707
   vertex -23.375396728515625 46.233734130859375 -8.3074121475219727
   vertex -4.2314105033874512 41.141082763671875 -6.1262574195861816
  endloop
 endfacet
 facet normal -0.57398311958513615 0.56153457206931723 -0.5960052875623203
  outer loop
   vertex -22.851112365722656 58.123191833496094 2.3894915580749512
   vertex -12.36512565612793 66.202377319335938 -0.097126312553882599
   vertex -23.375396728515625 46.233734130859375 -8.3074121475219727
  endloop
 endfacet
 facet normal -0.60671026958599972 0.31724853752374599 0.72887311256344733
  outer loop
   vertex -1.7752654552459717 66.362686157226563 27.540822982788086
   vertex -18.137834548950195 58.243656158447266 17.454584121704102
   vertex -15.10715389251709 48.52984619140625 24.205329895019531
  endloop
 endfacet
 facet normal 0.0023391847363781388 -0.20248608223871933 0.97928234677971382
  outer loop
   vertex 14.388162612915039 30.854108810424805 34.495735168457031
   vertex -16.440580368041992 24.642160415649414 33.284931182861328
   vertex -17.121910095214844 14.712777137756348 31.233461380004883
  endloop
 endfacet
 facet normal 0.34736147127651845 -0.78252766634867299 0.5167111956127064
  outer loop
   vertex 14.388162612915039 30.854108810424805 34.495735168457031
   vertex -17.121910095214844 14.712777137756348 31.233461380004883
   vertex -24.343608856201172 4.7033424377441406 20.929601669311523
  endloop
 endfacet
 facet normal 0.73302489522364889 -0.67144629891187613 -0.10878589366228458
  outer loop
   vertex -14.312042236328125 5.7840986251831055 -4.1563267707824707
   vertex 14.388162612915039 30.854108810424805 34.495735168457031
   vertex -15.279297828674316 3.6483538150787354 2.5082828998565674
  endloop
 endfacet
 facet normal 0.39404494099327764 -0.89032962527680126 -0.22812659387295256
  outer loop
   vertex -24.871461868286133 4.4019641876220703 -17.001522064208984
   vertex -14.312042236328125 5.7840986251831055 -4.1563267707824707
   vertex -15.279297828674316 3.6483538150787354 2.5082828998565674
  endloop
 endfacet
 facet normal 0.081048993735256397 -0.99668698206899298 0.0067911993569055714
  outer loop
   vertex -24.871461868286133 4.4019641876220703 -17.001522064208984
   vertex -24.343608856201172 4.7033424377441406 20.929601669311523
   vertex -39.820804595947266 3.1898548603057861 -16.480907440185547
  endloop
 endfacet
 facet normal -0.097020777196171554 -0.99523929945796308 0.0092577322640946483
  outer loop
   vertex -15.279297828674316 3.6483538150787354 2.5082828998565674
   vertex -24.343608856201172 4.7033424377441406 20.929601669311523
   vertex -24.871461868286133 4.4019641876220703 -17.001522064208984
  endloop
 endfacet
 facet normal 0.43634442906579118 -0.8880858807186357 -0.14459255752442418
  outer loop
   vertex -38.100788116455078 0.49421721696853638 5.2662515640258789
   vertex -39.820804595947266 3.1898548603057861 -16.480907440185547
   vertex -24.343608856201172 4.7033424377441406 20.929601669311523
  endloop
 endfacet
 facet normal 0.46850499318525557 -0.83840050073329409 0.27854563671083632
  outer loop
   vertex -15.279297828674316 3.6483538150787354 2.5082828998565674
   vertex 14.388162612915039 30.854108810424805 34.495735168457031
   vertex -24.343608856201172 4.7033424377441406 20.929601669311523
  endloop
 endfacet
 facet normal 0.65401369985774793 -0.28284675941014653 -0.70161513031686984
  outer loop
   vertex -13.608630180358887 14.30415153503418 -18.479192733764648
   vertex -22.269210815429688 15.41597843170166 -27.000410079956055
   vertex -12.974791526794434 23.464876174926758 -21.581380844116211
  endloop
 endfacet
 facet normal 0.99583565128219431 -0.082231890426817597 -0.03936079054337889
  outer loop
   vertex -12.974791526794434 23.464876174926758 -21.581380844116211
   vertex -11.689881324768066 34.982997894287109 -13.13636589050293
   vertex -13.608630180358887 14.30415153503418 -18.479192733764648
  endloop
 endfacet
 facet normal 0.76488400543059332 -0.25112661003389086 -0.59320138567718983
  outer loop
   vertex -14.312042236328125 5.7840986251831055 -4.1563267707824707
   vertex -11.689881324768066 34.982997894287109 -13.13636589050293
   vertex -4.2314105033874512 41.141082763671875 -6.1262574195861816
  endloop
 endfacet
 facet normal 0.99583298431162048 -0.091044411637707351 -0.0052519012324294765
  outer loop
   vertex -14.312042236328125 5.7840986251831055 -4.1563267707824707
   vertex -13.608630180358887 14.30415153503418 -18.479192733764648
   vertex -11.689881324768066 34.982997894287109 -13.13636589050293
  endloop
 endfacet
 facet normal 0.60888677630711097 0.52891289825378041 -0.59119204975973783
  outer loop
   vertex -11.689881324768066 34.982997894287109 -13.13636589050293
   vertex -24.098535537719727 39.628616333007813 -21.76019287109375
   vertex -10.401599884033203 38.124668121337891 -8.998814582824707
  endloop
 endfacet
 facet normal -0.12802857401266179 0.80866836693256827 -0.57416387604837826
  outer loop
   vertex -10.401599884033203 38.124668121337891 -8.998814582824707
   vertex -4.2314105033874512 41.141082763671875 -6.1262574195861816
   vertex -11.689881324768066 34.982997894287109 -13.13636589050293
  endloop
 endfacet
 facet normal 0.46769920947179244 0.78320875340330798 -0.40968463243316394
  outer loop
   vertex -10.401599884033203 38.124668121337891 -8.998814582824707
   vertex -24.098535537719727 39.628616333007813 -21.76019287109375
   vertex -23.375396728515625 46.233734130859375 -8.3074121475219727
  endloop
 endfacet
 facet normal -0.20140098323910496 0.46970692192321278 0.85954235000245482
  outer loop
   vertex 24.516517639160156 54.707305908203125 30.113882064819336
   vertex -15.10715389251709 48.52984619140625 24.205329895019531
   vertex -13.084946632385254 41.506523132324219 28.517133712768555
  endloop
 endfacet
 facet normal -0.49551135310847255 0.63710073038000758 0.59039915166764212
  outer loop
   vertex -13.084946632385254 41.506523132324219 28.517133712768555
   vertex -22.851112365722656 58.123191833496094 2.3894915580749512
   vertex -37.408679962158203 38.156440734863281 11.717742919921875
  endloop
 endfacet
 facet normal -0.95042588214975421 -0.09113579092530627 0.2972959975382789
  outer loop
   vertex -13.084946632385254 41.506523132324219 28.517133712768555
   vertex -15.10715389251709 48.52984619140625 24.205329895019531
   vertex -22.851112365722656 58.123191833496094 2.3894915580749512
  endloop
 endfacet
 facet normal -0.56319857463566492 0.33303425811780002 0.75623775920558334
  outer loop
   vertex -37.408679962158203 38.156440734863281 11.717742919921875
   vertex -16.440580368041992 24.642160415649414 33.284931182861328
   vertex -14.919610023498535 27.928779602050781 32.970283508300781
  endloop
 endfacet
 facet normal -0.46472582377461824 0.60346529792825143 -0.64796569578440566
  outer loop
   vertex -29.741168975830078 50.783481597900391 0.4954511821269989
   vertex -22.851112365722656 58.123191833496094 2.3894915580749512
   vertex -23.375396728515625 46.233734130859375 -8.3074121475219727
  endloop
 endfacet
 facet normal -0.95035826835102044 -0.089378842214500473 0.29804460126169929
  outer loop
   vertex -15.10715389251709 48.52984619140625 24.205329895019531
   vertex -18.137834548950195 58.243656158447266 17.454584121704102
   vertex -22.851112365722656 58.123191833496094 2.3894915580749512
  endloop
 endfacet
 facet normal -0.57131814708206019 0.14867930359086201 0.80714932911974691
  outer loop
   vertex -1.7752654552459717 66.362686157226563 27.540822982788086
   vertex -15.41059398651123 66.156272888183594 17.927457809448242
   vertex -18.137834548950195 58.243656158447266 17.454584121704102
  endloop
 endfacet
 facet normal -0.9308615607307249 0.33018883187827947 -0.1564355779764191
  outer loop
   vertex -18.137834548950195 58.243656158447266 17.454584121704102
   vertex -15.41059398651123 66.156272888183594 17.927457809448242
   vertex -12.36512565612793 66.202377319335938 -0.097126312553882599
  endloop
 endfacet
 facet normal -0.5749318729246824 0.79959869371106684 0.17347988503245027
  outer loop
   vertex -18.137834548950195 58.243656158447266 17.454584121704102
   vertex -12.36512565612793 66.202377319335938 -0.097126312553882599
   vertex -22.851112365722656 58.123191833496094 2.3894915580749512
  endloop
 endfacet
 facet normal -0.85561826754611636 -0.047773878471282227 0.51539794021434904
  outer loop
   vertex -16.440580368041992 24.642160415649414 33.284931182861328
   vertex -21.990434646606445 5.6570334434509277 22.311759948730469
   vertex -17.121910095214844 14.712777137756348 31.233461380004883
  endloop
 endfacet
 facet normal -0.71716028799697007 -0.00052840715617120297 0.6969080585744295
  outer loop
   vertex -37.408679962158203 38.156440734863281 11.717742919921875
   vertex -26.787654876708984 8.7102489471435547 22.625089645385742
   vertex -16.440580368041992 24.642160415649414 33.284931182861328
  endloop
 endfacet
 facet normal -0.33967536534150283 -0.6073941172698768 0.71811770099758965
  outer loop
   vertex -21.990434646606445 5.6570334434509277 22.311759948730469
   vertex -26.787654876708984 8.7102489471435547 22.625089645385742
   vertex -32.038902282714844 2.1370270252227783 14.581483840942383
  endloop
 endfacet
 facet normal 0.048143919344216871 -0.83148857617152749 -0.55345181427692836
  outer loop
   vertex -39.820804595947266 3.1898548603057861 -16.480907440185547
   vertex -39.730854034423828 7.3356680870056152 -22.701622009277344
   vertex -24.871461868286133 4.4019641876220703 -17.001522064208984
  endloop
 endfacet
 facet normal 0.027421119022625604 -0.85792783902599523 -0.51303791795123022
  outer loop
   vertex -24.871461868286133 4.4019641876220703 -17.001522064208984
   vertex -39.730854034423828 7.3356680870056152 -22.701622009277344
   vertex -30.598573684692383 8.8841686248779297 -24.802995681762695
  endloop
 endfacet
 facet normal 0.57617983501576686 -0.71455955607428456 -0.39676370618306922
  outer loop
   vertex -13.608630180358887 14.30415153503418 -18.479192733764648
   vertex -14.312042236328125 5.7840986251831055 -4.1563267707824707
   vertex -24.871461868286133 4.4019641876220703 -17.001522064208984
  endloop
 endfacet
 facet normal 0.43069174090897283 -0.72845539375044865 -0.5327826607808076
  outer loop
   vertex -22.269210815429688 15.41597843170166 -27.000410079956055
   vertex -13.608630180358887 14.30415153503418 -18.479192733764648
   vertex -30.598573684692383 8.8841686248779297 -24.802995681762695
  endloop
 endfacet
 facet normal 0.44007060199952153 -0.60020825623230667 -0.66789813175839341
  outer loop
   vertex -13.608630180358887 14.30415153503418 -18.479192733764648
   vertex -24.871461868286133 4.4019641876220703 -17.001522064208984
   vertex -30.598573684692383 8.8841686248779297 -24.802995681762695
  endloop
 endfacet
 facet normal 0.33930298279635307 0.22339676510250919 -0.91376549026937537
  outer loop
   vertex -12.974791526794434 23.464876174926758 -21.581380844116211
   vertex -22.269210815429688 15.41597843170166 -27.000410079956055
   vertex -24.098535537719727 39.628616333007813 -21.76019287109375
  endloop
 endfacet
 facet normal 0.61874005063123372 0.41845629262962236 -0.66487222900609277
  outer loop
   vertex -11.689881324768066 34.982997894287109 -13.13636589050293
   vertex -12.974791526794434 23.464876174926758 -21.581380844116211
   vertex -24.098535537719727 39.628616333007813 -21.76019287109375
  endloop
 endfacet
 facet normal -0.56735682601623516 0.32483900230601198 0.75669402968017285
  outer loop
   vertex -37.408679962158203 38.156440734863281 11.717742919921875
   vertex -14.919610023498535 27.928779602050781 32.970283508300781
   vertex -13.084946632385254 41.506523132324219 28.517133712768555
  endloop
 endfacet
 facet normal -0.1775674281598314 0.81597374718940707 -0.55014239279879229
  outer loop
   vertex -23.375396728515625 46.233734130859375 -8.3074121475219727
   vertex -30.267509460449219 50.294403076171875 -0.060067374259233475
   vertex -29.741168975830078 50.783481597900391 0.4954511821269989
  endloop
 endfacet
 facet normal -0.73916035670750491 0.63873884752223076 0.21366949182793171
  outer loop
   vertex -37.408679962158203 38.156440734863281 11.717742919921875
   vertex -22.851112365722656 58.123191833496094 2.3894915580749512
   vertex -29.741168975830078 50.783481597900391 0.4954511821269989
  endloop
 endfacet
 facet normal -0.65194432737301033 0.43270194490482394 0.62268581233374498
  outer loop
   vertex -46.562801361083984 32.476478576660156 6.080474853515625
   vertex -37.408679962158203 38.156440734863281 11.717742919921875
   vertex -46.244056701660156 41.841762542724609 -0.093702778220176697
  endloop
 endfacet
 facet normal -0.76365475650749626 0.62092097102615429 0.17688572752886117
  outer loop
   vertex -37.408679962158203 38.156440734863281 11.717742919921875
   vertex -29.741168975830078 50.783481597900391 0.4954511821269989
   vertex -30.267509460449219 50.294403076171875 -0.060067374259233475
  endloop
 endfacet
 facet normal -0.19607766596791873 0.026967628437626866 -0.98021747379090496
  outer loop
   vertex -42.009090423583984 45.543487548828125 -4.5990138053894043
   vertex -23.375396728515625 46.233734130859375 -8.3074121475219727
   vertex -47.963020324707031 36.674343109130859 -3.6520271301269531
  endloop
 endfacet
 facet normal -0.13590801162276939 0.8391052137950924 -0.52671762127219324
  outer loop
   vertex -42.009090423583984 45.543487548828125 -4.5990138053894043
   vertex -30.267509460449219 50.294403076171875 -0.060067374259233475
   vertex -23.375396728515625 46.233734130859375 -8.3074121475219727
  endloop
 endfacet
 facet normal -0.83837434049587423 0.0027441684874443509 0.54508800641494615
  outer loop
   vertex -26.787654876708984 8.7102489471435547 22.625089645385742
   vertex -38.100788116455078 0.49421721696853638 5.2662515640258789
   vertex -32.038902282714844 2.1370270252227783 14.581483840942383
  endloop
 endfacet
 facet normal -0.71457638645853405 0.68510996410722225 0.1414387676588863
  outer loop
   vertex -26.787654876708984 8.7102489471435547 22.625089645385742
   vertex -39.820804595947266 3.1898548603057861 -16.480907440185547
   vertex -38.100788116455078 0.49421721696853638 5.2662515640258789
  endloop
 endfacet
 facet normal -0.51629865491652382 0.1274689304016397 0.84686915796576867
  outer loop
   vertex -42.334438323974609 25.941648483276367 10.55327033996582
   vertex -26.787654876708984 8.7102489471435547 22.625089645385742
   vertex -37.408679962158203 38.156440734863281 11.717742919921875
  endloop
 endfacet
 facet normal -0.22215229639561365 -0.43841878123942862 0.87088307450695668
  outer loop
   vertex -16.440580368041992 24.642160415649414 33.284931182861328
   vertex -26.787654876708984 8.7102489471435547 22.625089645385742
   vertex -21.990434646606445 5.6570334434509277 22.311759948730469
  endloop
 endfacet
 facet normal -0.80019593255799804 -0.49365798308322062 -0.34057049968522285
  outer loop
   vertex -44.223541259765625 13.390384674072266 -20.922046661376953
   vertex -39.730854034423828 7.3356680870056152 -22.701622009277344
   vertex -39.820804595947266 3.1898548603057861 -16.480907440185547
  endloop
 endfacet
 facet normal -0.38929900862398864 0.89473687783781686 -0.21884286902116543
  outer loop
   vertex -23.375396728515625 46.233734130859375 -8.3074121475219727
   vertex -38.976772308349609 35.160903930664063 -25.825321197509766
   vertex -47.963020324707031 36.674343109130859 -3.6520271301269531
  endloop
 endfacet
 facet normal -0.15017043723652759 0.89063107792547302 -0.42921454170787399
  outer loop
   vertex -38.976772308349609 35.160903930664063 -25.825321197509766
   vertex -23.375396728515625 46.233734130859375 -8.3074121475219727
   vertex -24.098535537719727 39.628616333007813 -21.76019287109375
  endloop
 endfacet
 facet normal -0.17850817385131143 -0.2416089641392167 -0.95381336765419933
  outer loop
   vertex -39.730854034423828 7.3356680870056152 -22.701622009277344
   vertex -43.483940124511719 23.692470550537109 -26.142539978027344
   vertex -30.598573684692383 8.8841686248779297 -24.802995681762695
  endloop
 endfacet
 facet normal -0.66970882937686971 -0.2968631937390106 -0.68070722638865644
  outer loop
   vertex -39.730854034423828 7.3356680870056152 -22.701622009277344
   vertex -44.223541259765625 13.390384674072266 -20.922046661376953
   vertex -43.483940124511719 23.692470550537109 -26.142539978027344
  endloop
 endfacet
 facet normal -0.47109222747490037 -0.47703567270643998 -0.74196299111091191
  outer loop
   vertex -30.598573684692383 8.8841686248779297 -24.802995681762695
   vertex -43.483940124511719 23.692470550537109 -26.142539978027344
   vertex -36.212776184082031 20.666782379150391 -28.813869476318359
  endloop
 endfacet
 facet normal 0.0021563227161757992 -0.3213256704604851 -0.9469662949521821
  outer loop
   vertex -22.269210815429688 15.41597843170166 -27.000410079956055
   vertex -30.598573684692383 8.8841686248779297 -24.802995681762695
   vertex -36.212776184082031 20.666782379150391 -28.813869476318359
  endloop
 endfacet
 facet normal 0.20746372006229799 0.22187304080595416 -0.9527492632489577
  outer loop
   vertex -22.269210815429688 15.41597843170166 -27.000410079956055
   vertex -36.212776184082031 20.666782379150391 -28.813869476318359
   vertex -24.098535537719727 39.628616333007813 -21.76019287109375
  endloop
 endfacet
 facet normal -0.32076313055971301 0.063509315416364939 -0.94502782018778542
  outer loop
   vertex -36.212776184082031 20.666782379150391 -28.813869476318359
   vertex -43.483940124511719 23.692470550537109 -26.142539978027344
   vertex -39.610603332519531 32.753501892089844 -26.848300933837891
  endloop
 endfacet
 facet normal 0.19059631747112338 0.23297408792016172 -0.95362262878154036
  outer loop
   vertex -24.098535537719727 39.628616333007813 -21.76019287109375
   vertex -36.212776184082031 20.666782379150391 -28.813869476318359
   vertex -38.976772308349609 35.160903930664063 -25.825321197509766
  endloop
 endfacet
 facet normal -0.79733321223587528 0.4990084384044956 -0.33948538564528402
  outer loop
   vertex -46.244056701660156 41.841762542724609 -0.093702778220176697
   vertex -42.009090423583984 45.543487548828125 -4.5990138053894043
   vertex -47.963020324707031 36.674343109130859 -3.6520271301269531
  endloop
 endfacet
 facet normal 0.16375145887287992 0.34716944624153512 -0.9233952757694559
  outer loop
   vertex -45.697654724121094 42.394279479980469 0.21092420816421509
   vertex -43.809314727783203 43.708839416503906 1.0400311946868896
   vertex -46.244056701660156 41.841762542724609 -0.093702778220176697
  endloop
 endfacet
 facet normal -0.16375145887287992 -0.34716944624153512 0.9233952757694559
  outer loop
   vertex -46.244056701660156 41.841762542724609 -0.093702778220176697
   vertex -43.809314727783203 43.708839416503906 1.0400311946868896
   vertex -45.697654724121094 42.394279479980469 0.21092420816421509
  endloop
 endfacet
 facet normal -0.48117012509501439 0.73965068166938208 0.47052330422845878
  outer loop
   vertex -30.267509460449219 50.294403076171875 -0.060067374259233475
   vertex -42.009090423583984 45.543487548828125 -4.5990138053894043
   vertex -37.408679962158203 38.156440734863281 11.717742919921875
  endloop
 endfacet
 facet normal -0.2569581994761872 0.85112509487550325 0.4577756618641074
  outer loop
   vertex -37.408679962158203 38.156440734863281 11.717742919921875
   vertex -42.009090423583984 45.543487548828125 -4.5990138053894043
   vertex -46.244056701660156 41.841762542724609 -0.093702778220176697
  endloop
 endfacet
 facet normal -0.58826175473713371 0.16168716034263458 0.79234170033762796
  outer loop
   vertex -42.334438323974609 25.941648483276367 10.55327033996582
   vertex -37.408679962158203 38.156440734863281 11.717742919921875
   vertex -46.562801361083984 32.476478576660156 6.080474853515625
  endloop
 endfacet
 facet normal -0.96157500621148384 0.17317360990441263 0.21303616655877822
  outer loop
   vertex -46.244056701660156 41.841762542724609 -0.093702778220176697
   vertex -47.963020324707031 36.674343109130859 -3.6520271301269531
   vertex -46.562801361083984 32.476478576660156 6.080474853515625
  endloop
 endfacet
 facet normal -0.92979782328453853 -0.33369604010965281 0.15531568056854761
  outer loop
   vertex -46.562801361083984 32.476478576660156 6.080474853515625
   vertex -44.223541259765625 13.390384674072266 -20.922046661376953
   vertex -39.820804595947266 3.1898548603057861 -16.480907440185547
  endloop
 endfacet
 facet normal -0.80423964358751188 -0.48943314960968837 0.33712577437118652
  outer loop
   vertex -39.820804595947266 3.1898548603057861 -16.480907440185547
   vertex -26.787654876708984 8.7102489471435547 22.625089645385742
   vertex -42.334438323974609 25.941648483276367 10.55327033996582
  endloop
 endfacet
 facet normal -0.91506593162593086 0.13493438624080176 -0.38006190573035015
  outer loop
   vertex -44.223541259765625 13.390384674072266 -20.922046661376953
   vertex -47.963020324707031 36.674343109130859 -3.6520271301269531
   vertex -38.976772308349609 35.160903930664063 -25.825321197509766
  endloop
 endfacet
 facet normal -0.88201100297544621 -0.39773093785248104 0.25271860181876876
  outer loop
   vertex -42.334438323974609 25.941648483276367 10.55327033996582
   vertex -46.562801361083984 32.476478576660156 6.080474853515625
   vertex -39.820804595947266 3.1898548603057861 -16.480907440185547
  endloop
 endfacet
 facet normal -0.81569416959664298 0.30701145675350139 0.49029275653239673
  outer loop
   vertex -43.483940124511719 23.692470550537109 -26.142539978027344
   vertex -44.223541259765625 13.390384674072266 -20.922046661376953
   vertex -38.976772308349609 35.160903930664063 -25.825321197509766
  endloop
 endfacet
 facet normal -0.9786020712071879 -0.19818933243566972 0.055307998858263631
  outer loop
   vertex -47.963020324707031 36.674343109130859 -3.6520271301269531
   vertex -44.223541259765625 13.390384674072266 -20.922046661376953
   vertex -46.562801361083984 32.476478576660156 6.080474853515625
  endloop
 endfacet
endsolid
